<svg xmlns="http://www.w3.org/2000/svg" xmlns:xlink="http://www.w3.org/1999/xlink" contentStyleType="text/css" data-diagram-type="DESCRIPTION" height="499px" preserveAspectRatio="none" style="width:229px;height:499px;background:#FFFFFF;" version="1.1" viewBox="0 0 229 499" width="229px" zoomAndPan="magnify"><?plantuml 1.2026.6?><defs/><g><!--entity System--><g class="entity" data-qualified-name="System" data-source-line="9" id="ent0006"><rect fill="#F1F1F1" height="36.2969" rx="2.5" ry="2.5" style="stroke:#181818;stroke-width:0.5;" width="194.8018" x="7" y="449.39"/><text fill="#000000" font-family="sans-serif" font-size="14" lengthAdjust="spacing" textLength="174.8018" x="17" y="472.3851">H&#7879; th&#7889;ng Trend-Tracking</text></g><!--entity Guest--><g class="entity" data-qualified-name="Guest" data-source-line="2" id="ent0001"><ellipse cx="36.3991" cy="14" fill="#F1F1F1" rx="8" ry="8" style="stroke:#181818;stroke-width:0.5;"/><path d="M36.3991,22 L36.3991,49 M23.3991,30 L49.3991,30 M36.3991,49 L23.3991,64 M36.3991,49 L49.3991,64" fill="none" style="stroke:#181818;stroke-width:0.5;"/><text fill="#000000" font-family="sans-serif" font-size="14" lengthAdjust="spacing" textLength="41.1182" x="15.84" y="78.4951">Guest</text></g><!--entity User--><g class="entity" data-qualified-name="User" data-source-line="3" id="ent0002"><ellipse cx="104.4051" cy="151.3" fill="#F1F1F1" rx="8" ry="8" style="stroke:#181818;stroke-width:0.5;"/><path d="M104.4051,159.3 L104.4051,186.3 M91.4051,167.3 L117.4051,167.3 M104.4051,186.3 L91.4051,201.3 M104.4051,186.3 L117.4051,201.3" fill="none" style="stroke:#181818;stroke-width:0.5;"/><text fill="#000000" font-family="sans-serif" font-size="14" lengthAdjust="spacing" textLength="31.9102" x="88.45" y="215.7951">User</text></g><!--entity Admin--><g class="entity" data-qualified-name="Admin" data-source-line="4" id="ent0003"><ellipse cx="192.4021" cy="304.6" fill="#F1F1F1" rx="8" ry="8" style="stroke:#181818;stroke-width:0.5;"/><path d="M192.4021,312.6 L192.4021,339.6 M179.4021,320.6 L205.4021,320.6 M192.4021,339.6 L179.4021,354.6 M192.4021,339.6 L205.4021,354.6" fill="none" style="stroke:#181818;stroke-width:0.5;"/><text fill="#000000" font-family="sans-serif" font-size="14" lengthAdjust="spacing" textLength="44.8643" x="169.97" y="369.0951">Admin</text></g><!--reverse link Guest to User--><g class="link" data-entity-1="ent0001" data-entity-2="ent0002" data-link-type="extension" data-source-line="6" id="lnk4"><path d="M63.2444,98.0624 C73.5444,118.5524 78.11,127.65 88.01,147.34" fill="none" id="Guest-backto-User" style="stroke:#181818;stroke-width:1;"/><polygon fill="none" points="55.16,81.98,57.8836,100.7572,68.6052,95.3676,55.16,81.98" style="stroke:#181818;stroke-width:1;stroke-linejoin:miter;stroke-miterlimit:10;"/></g><!--reverse link User to Admin--><g class="link" data-entity-1="ent0002" data-entity-2="ent0003" data-link-type="extension" data-source-line="7" id="lnk5"><path d="M129.7953,225.6122 C143.8553,249.8022 155.22,269.32 170.66,295.87" fill="none" id="User-backto-Admin" style="stroke:#181818;stroke-width:1;"/><polygon fill="none" points="120.75,210.05,124.6079,228.6273,134.9827,222.5971,120.75,210.05" style="stroke:#181818;stroke-width:1;stroke-linejoin:miter;stroke-miterlimit:10;"/></g><!--link Guest to System--><g class="link" data-entity-1="ent0001" data-entity-2="ent0006" data-link-type="association" data-source-line="12" id="lnk7"><path d="M36.77,82.12 C37.7,126.36 40.86,202.03 51.4,266.1 C62.74,335 87.33,414.58 98.58,449.09" fill="none" id="Guest-System" style="stroke:#181818;stroke-width:1;"/><text fill="#000000" font-family="sans-serif" font-size="13" lengthAdjust="spacing" textLength="43.8052" x="52.4" y="262.1669">access</text></g><!--link User to System--><g class="link" data-entity-1="ent0002" data-entity-2="ent0006" data-link-type="association" data-source-line="13" id="lnk8"><path d="M104.4,219.45 C104.4,281.63 104.4,403.74 104.4,449.06" fill="none" id="User-System" style="stroke:#181818;stroke-width:1;"/><text fill="#000000" font-family="sans-serif" font-size="13" lengthAdjust="spacing" textLength="29.7832" x="105.4" y="338.8069">uses</text></g><!--link Admin to System--><g class="link" data-entity-1="ent0003" data-entity-2="ent0006" data-link-type="association" data-source-line="14" id="lnk9"><path d="M169.51,369.4 C152.4,394.93 129.71,428.79 116.13,449.05" fill="none" id="Admin-System" style="stroke:#181818;stroke-width:1;"/><text fill="#000000" font-family="sans-serif" font-size="13" lengthAdjust="spacing" textLength="59.8584" x="146.76" y="415.4569">manages</text></g><?plantuml-src IqmkoIzIS2zDBIxXIWIpGujJYw1CnvJSp3mkBh2iWasDhYv44aH0k505HQd99ObvwJcf2aeU3tUtAvHaFDmzCIzT8QGeDIz5DwGeCJaxCozTII6nM26uihWaDLUXcgiMPYxG6AYWbK9YSd9gSJ740cJnqkBKOYwmPIZ2kObvYUb06G00?></g></svg>