<svg xmlns="http://www.w3.org/2000/svg" xmlns:xlink="http://www.w3.org/1999/xlink" version="1.1" data-diagram-type="STATE" style="width:1292px;height:504px;background:#FFFFFF;" width="1292px" height="504px" viewBox="0 0 1292 504" zoomAndPan="magnify" preserveAspectRatio="none" contentStyleType="text/css"><?plantuml 1.2026.7beta3?><defs/><g><g class="start_entity" data-qualified-name=".start." id="ent0001" data-source-line="1"><ellipse cx="821.67" cy="16" rx="10" ry="10" fill="#222222" style="stroke:#222222;stroke-width:1;"/></g><g class="entity" data-qualified-name="ChoXuLy" id="ent0002" data-source-line="1"><rect x="780.79" y="103" width="81.7627" height="50" fill="#F1F1F1" style="stroke:#181818;stroke-width:0.5;" rx="12.5" ry="12.5"/><line x1="780.79" y1="129.2969" x2="862.5527" y2="129.2969" style="stroke:#181818;stroke-width:0.5;"/><text x="790.79" y="120.9951" fill="#000000" font-size="14" lengthAdjust="spacing" textLength="61.7627" font-family="sans-serif">ChoXuLy</text></g><g class="entity" data-qualified-name="DangChay" id="ent0004" data-source-line="2"><rect x="543.36" y="230" width="92.6318" height="50" fill="#F1F1F1" style="stroke:#181818;stroke-width:0.5;" rx="12.5" ry="12.5"/><line x1="543.36" y1="256.2969" x2="635.9918" y2="256.2969" style="stroke:#181818;stroke-width:0.5;"/><text x="553.36" y="247.9951" fill="#000000" font-size="14" lengthAdjust="spacing" textLength="72.6318" font-family="sans-serif">DangChay</text></g><g class="entity" data-qualified-name="DaHuy" id="ent0006" data-source-line="3"><rect x="953.15" y="357" width="67.0449" height="50" fill="#F1F1F1" style="stroke:#181818;stroke-width:0.5;" rx="12.5" ry="12.5"/><line x1="953.15" y1="383.2969" x2="1020.1949" y2="383.2969" style="stroke:#181818;stroke-width:0.5;"/><text x="963.15" y="374.9951" fill="#000000" font-size="14" lengthAdjust="spacing" textLength="47.0449" font-family="sans-serif">DaHuy</text></g><g class="entity" data-qualified-name="TamDung" id="ent0008" data-source-line="4"><rect x="112.58" y="357" width="88.1816" height="50" fill="#F1F1F1" style="stroke:#181818;stroke-width:0.5;" rx="12.5" ry="12.5"/><line x1="112.58" y1="383.2969" x2="200.7616" y2="383.2969" style="stroke:#181818;stroke-width:0.5;"/><text x="122.58" y="374.9951" fill="#000000" font-size="14" lengthAdjust="spacing" textLength="68.1816" font-family="sans-serif">TamDung</text></g><g class="entity" data-qualified-name="ThanhCong" id="ent0011" data-source-line="6"><rect x="498.75" y="357" width="99.8506" height="50" fill="#F1F1F1" style="stroke:#181818;stroke-width:0.5;" rx="12.5" ry="12.5"/><line x1="498.75" y1="383.2969" x2="598.6006" y2="383.2969" style="stroke:#181818;stroke-width:0.5;"/><text x="508.75" y="374.9951" fill="#000000" font-size="14" lengthAdjust="spacing" textLength="79.8506" font-family="sans-serif">ThanhCong</text></g><g class="entity" data-qualified-name="ThatBai" id="ent0013" data-source-line="7"><rect x="693.89" y="357" width="73.5664" height="50" fill="#F1F1F1" style="stroke:#181818;stroke-width:0.5;" rx="12.5" ry="12.5"/><line x1="693.89" y1="383.2969" x2="767.4564" y2="383.2969" style="stroke:#181818;stroke-width:0.5;"/><text x="703.89" y="374.9951" fill="#000000" font-size="14" lengthAdjust="spacing" textLength="53.5664" font-family="sans-serif">ThatBai</text></g><g class="end_entity" data-qualified-name=".end." id="ent0016" data-source-line="9"><ellipse cx="730.67" cy="479" rx="11" ry="11" fill="none" style="stroke:#222222;stroke-width:1;"/><ellipse cx="730.67" cy="479" rx="6" ry="6" fill="#222222" style="stroke:#222222;stroke-width:1;"/></g><!--link *start* to ChoXuLy--><g class="link" data-entity-1="ent0001" data-entity-2="ent0002" id="lnk3" data-source-line="1" data-link-type="dependency"><path d="M821.67,26.38 C821.67,43.11 821.67,73.59 821.67,97.63" style="stroke:#181818;stroke-width:1;" fill="none" id="*start*-to-ChoXuLy"/><polygon points="821.67,102.63,825.67,93.63,821.67,97.63,817.67,93.63,821.67,102.63" fill="#181818" style="stroke:#181818;stroke-width:1;stroke-linejoin:miter;stroke-miterlimit:10;"/><text x="822.67" y="69.0669" fill="#000000" font-size="13" lengthAdjust="spacing" textLength="217.6357" font-family="sans-serif">Admin tạo Job / Hẹn giờ kích hoạt</text></g><!--link ChoXuLy to DangChay--><g class="link" data-entity-1="ent0002" data-entity-2="ent0004" id="lnk5" data-source-line="2" data-link-type="dependency"><path d="M780.46,151.2 C739.58,173.23 681.4817,204.5282 639.2617,227.2782" style="stroke:#181818;stroke-width:1;" fill="none" id="ChoXuLy-to-DangChay"/><polygon points="634.86,229.65,644.6804,228.9021,639.2617,227.2782,640.8855,221.8594,634.86,229.65" fill="#181818" style="stroke:#181818;stroke-width:1;stroke-linejoin:miter;stroke-miterlimit:10;"/><text x="719.67" y="196.0669" fill="#000000" font-size="13" lengthAdjust="spacing" textLength="236.6025" font-family="sans-serif">Bắt đầu tiến trình (Worker nhận Job)</text></g><!--link ChoXuLy to DaHuy--><g class="link" data-entity-1="ent0002" data-entity-2="ent0006" id="lnk7" data-source-line="3" data-link-type="dependency"><path d="M862.83,139.9 C929.61,160.22 1058.48,211.06 1101.67,310 C1117.87,347.09 1064.9035,365.367 1025.4435,374.037" style="stroke:#181818;stroke-width:1;" fill="none" id="ChoXuLy-to-DaHuy"/><polygon points="1020.56,375.11,1030.2087,377.0854,1025.4435,374.037,1028.4919,369.2718,1020.56,375.11" fill="#181818" style="stroke:#181818;stroke-width:1;stroke-linejoin:miter;stroke-miterlimit:10;"/><text x="1085.67" y="259.5669" fill="#000000" font-size="13" lengthAdjust="spacing" textLength="190.7407" font-family="sans-serif">Admin hủy Job trước khi chạy</text></g><!--link DangChay to TamDung--><g class="link" data-entity-1="ent0004" data-entity-2="ent0008" id="lnk9" data-source-line="4" data-link-type="dependency"><path d="M542.86,257.02 C415.09,260.29 67.65,272.57 33.67,310 C6,340.49 61.9063,360.2506 107.5063,371.1206" style="stroke:#181818;stroke-width:1;" fill="none" id="DangChay-to-TamDung"/><polygon points="112.37,372.28,104.5428,366.3021,107.5063,371.1206,102.6878,374.0841,112.37,372.28" fill="#181818" style="stroke:#181818;stroke-width:1;stroke-linejoin:miter;stroke-miterlimit:10;"/><text x="34.67" y="323.0669" fill="#000000" font-size="13" lengthAdjust="spacing" textLength="198.0532" font-family="sans-serif">Lỗi mạng tạm thời / Rate Limit</text></g><!--link TamDung to DangChay--><g class="link" data-entity-1="ent0008" data-entity-2="ent0004" id="lnk10" data-source-line="5" data-link-type="dependency"><path d="M198.85,356.57 C227.11,341.15 265.62,321.96 301.67,310 C384.36,282.57 480.3248,268.2587 538.0948,261.4087" style="stroke:#181818;stroke-width:1;" fill="none" id="TamDung-to-DangChay"/><polygon points="543.06,260.82,533.6516,257.9076,538.0948,261.4087,534.5936,265.8519,543.06,260.82" fill="#181818" style="stroke:#181818;stroke-width:1;stroke-linejoin:miter;stroke-miterlimit:10;"/><text x="302.67" y="323.0669" fill="#000000" font-size="13" lengthAdjust="spacing" textLength="170.8218" font-family="sans-serif">Thử lại thành công (Retry)</text></g><!--link DangChay to ThanhCong--><g class="link" data-entity-1="ent0004" data-entity-2="ent0011" id="lnk12" data-source-line="6" data-link-type="dependency"><path d="M543,268.07 C521.6,276.19 498.24,289.31 485.67,310 C475.32,327.04 484.8446,340.8207 501.9646,353.7907" style="stroke:#181818;stroke-width:1;" fill="none" id="DangChay-to-ThanhCong"/><polygon points="505.95,356.81,501.1917,348.1869,501.9646,353.7907,496.3608,354.5635,505.95,356.81" fill="#181818" style="stroke:#181818;stroke-width:1;stroke-linejoin:miter;stroke-miterlimit:10;"/><text x="486.67" y="323.0669" fill="#000000" font-size="13" lengthAdjust="spacing" textLength="200.4272" font-family="sans-serif">Hoàn thành thu thập &amp; Lưu DB</text></g><!--link DangChay to ThatBai--><g class="link" data-entity-1="ent0004" data-entity-2="ent0013" id="lnk14" data-source-line="7" data-link-type="dependency"><path d="M636.29,273.69 C655.12,282.5 676.04,294.61 691.67,310 C705,323.12 712.9893,337.2021 719.5293,352.0921" style="stroke:#181818;stroke-width:1;" fill="none" id="DangChay-to-ThatBai"/><polygon points="721.54,356.67,721.583,346.8212,719.5293,352.0921,714.2584,350.0384,721.54,356.67" fill="#181818" style="stroke:#181818;stroke-width:1;stroke-linejoin:miter;stroke-miterlimit:10;"/><text x="704.67" y="323.0669" fill="#000000" font-size="13" lengthAdjust="spacing" textLength="214.9951" font-family="sans-serif">Lỗi nghiêm trọng / Hết số lần thử</text></g><!--link DangChay to DaHuy--><g class="link" data-entity-1="ent0004" data-entity-2="ent0006" id="lnk15" data-source-line="8" data-link-type="dependency"><path d="M636.34,259.4 C717.05,265.93 878.75,282.12 927.67,310 C946.89,320.95 959.8041,336.5384 970.1441,352.4384" style="stroke:#181818;stroke-width:1;" fill="none" id="DangChay-to-DaHuy"/><polygon points="972.87,356.63,971.3167,346.9044,970.1441,352.4384,964.6101,351.2658,972.87,356.63" fill="#181818" style="stroke:#181818;stroke-width:1;stroke-linejoin:miter;stroke-miterlimit:10;"/><text x="949.67" y="323.0669" fill="#000000" font-size="13" lengthAdjust="spacing" textLength="143.5903" font-family="sans-serif">Admin can thiệp dừng</text></g><!--link ThanhCong to *end*--><g class="link" data-entity-1="ent0011" data-entity-2="ent0016" id="lnk17" data-source-line="9" data-link-type="dependency"><path d="M595.54,407.46 C638.3,429.79 693.7875,458.7463 716.7575,470.7363" style="stroke:#181818;stroke-width:1;" fill="none" id="ThanhCong-to-*end*"/><polygon points="721.19,473.05,715.0625,465.3394,716.7575,470.7363,711.3606,472.4313,721.19,473.05" fill="#181818" style="stroke:#181818;stroke-width:1;stroke-linejoin:miter;stroke-miterlimit:10;"/></g><!--link ThatBai to *end*--><g class="link" data-entity-1="ent0013" data-entity-2="ent0016" id="lnk18" data-source-line="10" data-link-type="dependency"><path d="M730.67,407.46 C730.67,427.04 730.67,448.49 730.67,462.8" style="stroke:#181818;stroke-width:1;" fill="none" id="ThatBai-to-*end*"/><polygon points="730.67,467.8,734.67,458.8,730.67,462.8,726.67,458.8,730.67,467.8" fill="#181818" style="stroke:#181818;stroke-width:1;stroke-linejoin:miter;stroke-miterlimit:10;"/></g><!--link DaHuy to *end*--><g class="link" data-entity-1="ent0006" data-entity-2="ent0016" id="lnk19" data-source-line="11" data-link-type="dependency"><path d="M952.68,395.62 C893.92,417.42 780.9578,459.341 745.6178,472.451" style="stroke:#181818;stroke-width:1;" fill="none" id="DaHuy-to-*end*"/><polygon points="740.93,474.19,750.7593,474.81,745.6178,472.451,747.9769,467.3095,740.93,474.19" fill="#181818" style="stroke:#181818;stroke-width:1;stroke-linejoin:miter;stroke-miterlimit:10;"/></g><?plantuml-src PP6nJW9154Nx_OfR6I0XzXOc0WKnMn4IJGZ5k92T2UuCMMUB_G8h2oeBGo8LYRgHmiQPmc8D_p5_uflLXO3boznxxdrlHgqnskrpTBcwpi8SPxYO9492ExDIk5GtE4NVcK-9M3YxnAmi8Wwkw5a7jSa3Uap6NSuyeUFCkyRtmfbr1YsS-I9UMhv9ZiQLIcVJ598xKqZFRnvH-jc-17TsdLSbTBhTEFiKOSO58ZAlyc2Nw8r3blGo6PCrTFPH8249ZNwD19f0Iq6R39YU8XI9q45jEEe-96c1Mx89ifNFr3agFqZN64nrcZUFKZcJlAkgtBuYTUtHFFEfffZZ1E5saw7N-MVL7IPsXMNCHVb2NLDd7mXOdVrBuyxPXU-pbjKQnI7by5uHyoBwf_iv9iw-oZZOD_JoKMiSrC7r_8luctu0?></g></svg>