<svg xmlns="http://www.w3.org/2000/svg" xmlns:xlink="http://www.w3.org/1999/xlink" version="1.1" data-diagram-type="STATE" style="width:660px;height:520px;background:#FFFFFF;" width="660px" height="520px" viewBox="0 0 660 520" zoomAndPan="magnify" preserveAspectRatio="none" contentStyleType="text/css"><?plantuml 1.2026.7beta3?><defs/><g><g class="start_entity" data-qualified-name=".start." id="ent0001" data-source-line="1"><ellipse cx="239.8" cy="16" rx="10" ry="10" fill="#222222" style="stroke:#222222;stroke-width:1;"/></g><g class="entity" data-qualified-name="ChoXacNhan" id="ent0002" data-source-line="1"><rect x="184.86" y="103" width="109.8789" height="50" fill="#F1F1F1" style="stroke:#181818;stroke-width:0.5;" rx="12.5" ry="12.5"/><line x1="184.86" y1="129.2969" x2="294.7389" y2="129.2969" style="stroke:#181818;stroke-width:0.5;"/><text x="194.86" y="120.9951" fill="#000000" font-size="14" lengthAdjust="spacing" textLength="89.8789" font-family="sans-serif">ChoXacNhan</text></g><g class="entity" data-qualified-name="DangHoatDong" id="ent0004" data-source-line="2"><rect x="24.11" y="230" width="127.3857" height="50" fill="#F1F1F1" style="stroke:#181818;stroke-width:0.5;" rx="12.5" ry="12.5"/><line x1="24.11" y1="256.2969" x2="151.4957" y2="256.2969" style="stroke:#181818;stroke-width:0.5;"/><text x="34.11" y="247.9951" fill="#000000" font-size="14" lengthAdjust="spacing" textLength="107.3857" font-family="sans-serif">DangHoatDong</text></g><g class="end_entity" data-qualified-name=".end." id="ent0006" data-source-line="3"><ellipse cx="238.8" cy="495" rx="11" ry="11" fill="none" style="stroke:#222222;stroke-width:1;"/><ellipse cx="238.8" cy="495" rx="6" ry="6" fill="#222222" style="stroke:#222222;stroke-width:1;"/></g><g class="entity" data-qualified-name="BiKhoa" id="ent0008" data-source-line="4"><rect x="204.45" y="357" width="68.6924" height="50" fill="#F1F1F1" style="stroke:#181818;stroke-width:0.5;" rx="12.5" ry="12.5"/><line x1="204.45" y1="383.2969" x2="273.1424" y2="383.2969" style="stroke:#181818;stroke-width:0.5;"/><text x="214.45" y="374.9951" fill="#000000" font-size="14" lengthAdjust="spacing" textLength="48.6924" font-family="sans-serif">BiKhoa</text></g><!--link *start* to ChoXacNhan--><g class="link" data-entity-1="ent0001" data-entity-2="ent0002" id="lnk3" data-source-line="1" data-link-type="dependency"><path d="M239.8,26.38 C239.8,43.11 239.8,73.59 239.8,97.63" style="stroke:#181818;stroke-width:1;" fill="none" id="*start*-to-ChoXacNhan"/><polygon points="239.8,102.63,243.8,93.63,239.8,97.63,235.8,93.63,239.8,102.63" fill="#181818" style="stroke:#181818;stroke-width:1;stroke-linejoin:miter;stroke-miterlimit:10;"/><text x="240.8" y="69.0669" fill="#000000" font-size="13" lengthAdjust="spacing" textLength="82.2466" font-family="sans-serif">Đăng ký mới</text></g><!--link ChoXacNhan to DangHoatDong--><g class="link" data-entity-1="ent0002" data-entity-2="ent0004" id="lnk5" data-source-line="2" data-link-type="dependency"><path d="M210.13,153.4 C183.35,175.42 148.0123,204.4847 121.2523,226.4847" style="stroke:#181818;stroke-width:1;" fill="none" id="ChoXacNhan-to-DangHoatDong"/><polygon points="117.39,229.66,126.8824,227.0343,121.2523,226.4847,121.8019,220.8546,117.39,229.66" fill="#181818" style="stroke:#181818;stroke-width:1;stroke-linejoin:miter;stroke-miterlimit:10;"/><text x="173.8" y="196.0669" fill="#000000" font-size="13" lengthAdjust="spacing" textLength="178.6738" font-family="sans-serif">Xác nhận Email thành công</text></g><!--link ChoXacNhan to *end*--><g class="link" data-entity-1="ent0002" data-entity-2="ent0006" id="lnk7" data-source-line="3" data-link-type="dependency"><path d="M295.14,140.76 C319.02,148.7 345.04,161.75 360.8,183 C432.79,280.06 455.92,357.8 382.8,454 C366.39,475.59 285.7578,487.9414 254.8778,491.9814" style="stroke:#181818;stroke-width:1;" fill="none" id="ChoXacNhan-to-*end*"/><polygon points="249.92,492.63,259.3628,495.4287,254.8778,491.9814,258.3251,487.4963,249.92,492.63" fill="#181818" style="stroke:#181818;stroke-width:1;stroke-linejoin:miter;stroke-miterlimit:10;"/><text x="427.8" y="323.0669" fill="#000000" font-size="13" lengthAdjust="spacing" textLength="216.9121" font-family="sans-serif">Hết hạn xác nhận (Hệ thống xóa)</text></g><!--link DangHoatDong to BiKhoa--><g class="link" data-entity-1="ent0004" data-entity-2="ent0008" id="lnk9" data-source-line="4" data-link-type="dependency"><path d="M51.53,280.45 C35.63,294.2 22.98,311.64 34.8,327 C40.05,333.82 142.7416,358.6103 199.5116,371.9003" style="stroke:#181818;stroke-width:1;" fill="none" id="DangHoatDong-to-BiKhoa"/><polygon points="204.38,373.04,196.5287,367.0938,199.5116,371.9003,194.7052,374.8832,204.38,373.04" fill="#181818" style="stroke:#181818;stroke-width:1;stroke-linejoin:miter;stroke-miterlimit:10;"/><text x="35.8" y="323.0669" fill="#000000" font-size="13" lengthAdjust="spacing" textLength="219.3813" font-family="sans-serif">Vi phạm chính sách (Admin khóa)</text></g><!--link BiKhoa to DangHoatDong--><g class="link" data-entity-1="ent0008" data-entity-2="ent0004" id="lnk10" data-source-line="5" data-link-type="dependency"><path d="M255.88,356.79 C263.94,342.13 269.84,323.68 259.8,310 C235.17,276.45 194.6573,263.8323 156.6573,258.8323" style="stroke:#181818;stroke-width:1;" fill="none" id="BiKhoa-to-DangHoatDong"/><polygon points="151.7,258.18,160.1013,263.3199,156.6573,258.8323,161.1449,255.3883,151.7,258.18" fill="#181818" style="stroke:#181818;stroke-width:1;stroke-linejoin:miter;stroke-miterlimit:10;"/><text x="265.8" y="323.0669" fill="#000000" font-size="13" lengthAdjust="spacing" textLength="102.229" font-family="sans-serif">Admin mở khóa</text></g><!--link DangHoatDong to *end*--><g class="link" data-entity-1="ent0004" data-entity-2="ent0006" id="lnk11" data-source-line="6" data-link-type="dependency"><path d="M47.31,280.42 C37.47,288.51 28.22,298.45 22.8,310 C10.27,336.71 6,364.75 40.8,407 C91.41,468.44 189.0306,487.0706 222.8006,491.9106" style="stroke:#181818;stroke-width:1;" fill="none" id="DangHoatDong-to-*end*"/><polygon points="227.75,492.62,219.4085,487.3836,222.8006,491.9106,218.2735,495.3027,227.75,492.62" fill="#181818" style="stroke:#181818;stroke-width:1;stroke-linejoin:miter;stroke-miterlimit:10;"/><text x="41.8" y="386.5669" fill="#000000" font-size="13" lengthAdjust="spacing" textLength="144.2759" font-family="sans-serif">Yêu cầu xóa tài khoản</text></g><!--link BiKhoa to *end*--><g class="link" data-entity-1="ent0008" data-entity-2="ent0006" id="lnk12" data-source-line="7" data-link-type="dependency"><path d="M238.8,407.36 C238.8,431.23 238.8,461.46 238.8,478.71" style="stroke:#181818;stroke-width:1;" fill="none" id="BiKhoa-to-*end*"/><polygon points="238.8,483.71,242.8,474.71,238.8,478.71,234.8,474.71,238.8,483.71" fill="#181818" style="stroke:#181818;stroke-width:1;stroke-linejoin:miter;stroke-miterlimit:10;"/><text x="239.8" y="450.0669" fill="#000000" font-size="13" lengthAdjust="spacing" textLength="134.272" font-family="sans-serif">Admin xóa tài khoản</text></g><?plantuml-src RO-zQW9154Pxd-8hDU0BR24aKLWGKef1KWmJs3letWba5-mjRBMsY98Y4B2ArIvYCRx8l8btdHJhJptddE_EwE4DxNO7psI7Ih-GOaGuBeupJZ1sUwI-N9b6xRM2kugJsAgiQuMAC7GR3IPVR1czL9a9Cd9h9cYtu-HQ7ibYXDWNXmpYR1ZJcj-CVJaNtvTBQK_TdserBkQgn9FfarLI6HXyL8qKcjnM5ZybHMW-lgU6CQQp_a_VEJnWyiMlmDukXMDVtMyExOkV_7mHChSsObXVV7Cz7-XGlG5F?></g></svg>