<svg xmlns="http://www.w3.org/2000/svg" xmlns:xlink="http://www.w3.org/1999/xlink" contentStyleType="text/css" data-diagram-type="SEQUENCE" height="504px" preserveAspectRatio="none" style="width:996px;height:504px;background:#FFFFFF;" version="1.1" viewBox="0 0 996 504" width="996px" zoomAndPan="magnify"><?plantuml 1.2026.6?><defs/><g><g><title>Giao di.n .React.</title><rect fill="#FFFFFF" height="291.3281" style="stroke:#181818;stroke-width:1;" width="10" x="350.9985" y="112.4297"/></g><g><title>API .Express.</title><rect fill="#FFFFFF" height="87.3984" style="stroke:#181818;stroke-width:1;" width="10" x="690.4561" y="141.5625"/></g><g><title>API .Express.</title><rect fill="#FFFFFF" height="87.3984" style="stroke:#181818;stroke-width:1;" width="10" x="690.4561" y="287.2266"/></g><g><title>PostgreSQL</title><rect fill="#FFFFFF" height="29.1328" style="stroke:#181818;stroke-width:1;" width="10" x="937.5552" y="170.6953"/></g><g><title>PostgreSQL</title><rect fill="#FFFFFF" height="29.1328" style="stroke:#181818;stroke-width:1;" width="10" x="937.5552" y="316.3594"/></g><g class="participant-lifeline" data-entity-uid="part1" data-qualified-name="user" data-source-line="1" id="part1-lifeline"><g><title>User</title><rect fill="#000000" fill-opacity="0.00000" height="340.4609" width="8" x="19.9551" y="81.2969"/><line style="stroke:#181818;stroke-width:0.5;stroke-dasharray:5,5;" x1="23" x2="23" y1="81.2969" y2="421.7578"/></g></g><g class="participant-lifeline" data-entity-uid="part2" data-qualified-name="ui" data-source-line="2" id="part2-lifeline"><g><title>Giao di.n .React.</title><rect fill="#000000" fill-opacity="0.00000" height="340.4609" width="8" x="351.9985" y="81.2969"/><line style="stroke:#181818;stroke-width:0.5;stroke-dasharray:5,5;" x1="355.9604" x2="355.9604" y1="81.2969" y2="421.7578"/></g></g><g class="participant-lifeline" data-entity-uid="part3" data-qualified-name="system" data-source-line="3" id="part3-lifeline"><g><title>API .Express.</title><rect fill="#000000" fill-opacity="0.00000" height="340.4609" width="8" x="691.4561" y="81.2969"/><line style="stroke:#181818;stroke-width:0.5;stroke-dasharray:5,5;" x1="695.2075" x2="695.2075" y1="81.2969" y2="421.7578"/></g></g><g class="participant-lifeline" data-entity-uid="part4" data-qualified-name="db" data-source-line="4" id="part4-lifeline"><g><title>PostgreSQL</title><rect fill="#000000" fill-opacity="0.00000" height="340.4609" width="8" x="938.5552" y="81.2969"/><line style="stroke:#181818;stroke-width:0.5;stroke-dasharray:5,5;" x1="942.1787" x2="942.1787" y1="81.2969" y2="421.7578"/></g></g><g class="participant participant-head" data-entity-uid="part1" data-qualified-name="user" data-source-line="1" id="part1-head"><text fill="#000000" font-family="sans-serif" font-size="14" lengthAdjust="spacing" textLength="31.9102" x="5" y="77.9951">User</text><ellipse cx="23.9551" cy="13.5" fill="#E2E2F0" rx="8" ry="8" style="stroke:#181818;stroke-width:0.5;"/><path d="M23.9551,21.5 L23.9551,48.5 M10.9551,29.5 L36.9551,29.5 M23.9551,48.5 L10.9551,63.5 M23.9551,48.5 L36.9551,63.5" fill="none" style="stroke:#181818;stroke-width:0.5;"/></g><g class="participant participant-tail" data-entity-uid="part1" data-qualified-name="user" data-source-line="1" id="part1-tail"><text fill="#000000" font-family="sans-serif" font-size="14" lengthAdjust="spacing" textLength="31.9102" x="5" y="433.7529">User</text><ellipse cx="23.9551" cy="445.5547" fill="#E2E2F0" rx="8" ry="8" style="stroke:#181818;stroke-width:0.5;"/><path d="M23.9551,453.5547 L23.9551,480.5547 M10.9551,461.5547 L36.9551,461.5547 M23.9551,480.5547 L10.9551,495.5547 M23.9551,480.5547 L36.9551,495.5547" fill="none" style="stroke:#181818;stroke-width:0.5;"/></g><g class="participant participant-head" data-entity-uid="part2" data-qualified-name="ui" data-source-line="2" id="part2-head"><rect fill="#E2E2F0" height="30.2969" rx="2.5" ry="2.5" style="stroke:#181818;stroke-width:0.5;" width="136.0762" x="287.9604" y="50"/><text fill="#000000" font-family="sans-serif" font-size="14" lengthAdjust="spacing" textLength="122.0762" x="294.9604" y="69.9951">Giao di&#7879;n (React)</text></g><g class="participant participant-tail" data-entity-uid="part2" data-qualified-name="ui" data-source-line="2" id="part2-tail"><rect fill="#E2E2F0" height="30.2969" rx="2.5" ry="2.5" style="stroke:#181818;stroke-width:0.5;" width="136.0762" x="287.9604" y="420.7578"/><text fill="#000000" font-family="sans-serif" font-size="14" lengthAdjust="spacing" textLength="122.0762" x="294.9604" y="440.7529">Giao di&#7879;n (React)</text></g><g class="participant participant-head" data-entity-uid="part3" data-qualified-name="system" data-source-line="3" id="part3-head"><rect fill="#E2E2F0" height="30.2969" rx="2.5" ry="2.5" style="stroke:#181818;stroke-width:0.5;" width="106.4971" x="642.2075" y="50"/><text fill="#000000" font-family="sans-serif" font-size="14" lengthAdjust="spacing" textLength="92.4971" x="649.2075" y="69.9951">API (Express)</text></g><g class="participant participant-tail" data-entity-uid="part3" data-qualified-name="system" data-source-line="3" id="part3-tail"><rect fill="#E2E2F0" height="30.2969" rx="2.5" ry="2.5" style="stroke:#181818;stroke-width:0.5;" width="106.4971" x="642.2075" y="420.7578"/><text fill="#000000" font-family="sans-serif" font-size="14" lengthAdjust="spacing" textLength="92.4971" x="649.2075" y="440.7529">API (Express)</text></g><g class="participant participant-head" data-entity-uid="part4" data-qualified-name="db" data-source-line="4" id="part4-head"><text fill="#000000" font-family="sans-serif" font-size="14" lengthAdjust="spacing" textLength="80.7529" x="899.1787" y="77.9951">PostgreSQL</text><path d="M924.5552,29 C924.5552,19 942.5552,19 942.5552,19 C942.5552,19 960.5552,19 960.5552,29 L960.5552,55 C960.5552,65 942.5552,65 942.5552,65 C942.5552,65 924.5552,65 924.5552,55 L924.5552,29" fill="#E2E2F0" style="stroke:#181818;stroke-width:0.5;"/><path d="M924.5552,29 C924.5552,39 942.5552,39 942.5552,39 C942.5552,39 960.5552,39 960.5552,29" fill="none" style="stroke:#181818;stroke-width:0.5;"/></g><g class="participant participant-tail" data-entity-uid="part4" data-qualified-name="db" data-source-line="4" id="part4-tail"><text fill="#000000" font-family="sans-serif" font-size="14" lengthAdjust="spacing" textLength="80.7529" x="899.1787" y="433.7529">PostgreSQL</text><path d="M924.5552,447.0547 C924.5552,437.0547 942.5552,437.0547 942.5552,437.0547 C942.5552,437.0547 960.5552,437.0547 960.5552,447.0547 L960.5552,473.0547 C960.5552,483.0547 942.5552,483.0547 942.5552,483.0547 C942.5552,483.0547 924.5552,483.0547 924.5552,473.0547 L924.5552,447.0547" fill="#E2E2F0" style="stroke:#181818;stroke-width:0.5;"/><path d="M924.5552,447.0547 C924.5552,457.0547 942.5552,457.0547 942.5552,457.0547 C942.5552,457.0547 960.5552,457.0547 960.5552,447.0547" fill="none" style="stroke:#181818;stroke-width:0.5;"/></g><g><title>Giao di.n .React.</title><rect fill="#FFFFFF" height="291.3281" style="stroke:#181818;stroke-width:1;" width="10" x="350.9985" y="112.4297"/></g><g><title>API .Express.</title><rect fill="#FFFFFF" height="87.3984" style="stroke:#181818;stroke-width:1;" width="10" x="690.4561" y="141.5625"/></g><g><title>API .Express.</title><rect fill="#FFFFFF" height="87.3984" style="stroke:#181818;stroke-width:1;" width="10" x="690.4561" y="287.2266"/></g><g><title>PostgreSQL</title><rect fill="#FFFFFF" height="29.1328" style="stroke:#181818;stroke-width:1;" width="10" x="937.5552" y="170.6953"/></g><g><title>PostgreSQL</title><rect fill="#FFFFFF" height="29.1328" style="stroke:#181818;stroke-width:1;" width="10" x="937.5552" y="316.3594"/></g><g class="message" data-entity-1="part1" data-entity-2="part2" data-source-line="6" id="msg1"><polygon fill="#181818" points="338.9985,108.4297,348.9985,112.4297,338.9985,116.4297,342.9985,112.4297" style="stroke:#181818;stroke-width:1;stroke-linejoin:miter;stroke-miterlimit:10;"/><line style="stroke:#181818;stroke-width:1;" x1="23.9551" x2="344.9985" y1="112.4297" y2="112.4297"/><text fill="#000000" font-family="sans-serif" font-size="13" lengthAdjust="spacing" textLength="249.1963" x="30.9551" y="107.3638">1. Click "L&#432;u B&#225;o c&#225;o" tr&#234;n Dashboard</text></g><g class="message" data-entity-1="part2" data-entity-2="part3" data-source-line="8" id="msg2"><polygon fill="#181818" points="678.4561,137.5625,688.4561,141.5625,678.4561,145.5625,682.4561,141.5625" style="stroke:#181818;stroke-width:1;stroke-linejoin:miter;stroke-miterlimit:10;"/><line style="stroke:#181818;stroke-width:1;" x1="360.9985" x2="684.4561" y1="141.5625" y2="141.5625"/><text fill="#000000" font-family="sans-serif" font-size="13" lengthAdjust="spacing" textLength="310.4575" x="367.9985" y="136.4966">2. G&#7917;i request l&#7845;y d&#7919; li&#7879;u ph&#226;n t&#237;ch (chart data)</text></g><g class="message" data-entity-1="part3" data-entity-2="part4" data-source-line="10" id="msg3"><polygon fill="#181818" points="925.5552,166.6953,935.5552,170.6953,925.5552,174.6953,929.5552,170.6953" style="stroke:#181818;stroke-width:1;stroke-linejoin:miter;stroke-miterlimit:10;"/><line style="stroke:#181818;stroke-width:1;" x1="700.4561" x2="931.5552" y1="170.6953" y2="170.6953"/><text fill="#000000" font-family="sans-serif" font-size="13" lengthAdjust="spacing" textLength="218.0991" x="707.4561" y="165.6294">3. Query d&#7919; li&#7879;u th&#7889;ng k&#234; b&#224;i b&#225;o</text></g><g class="message" data-entity-1="part4" data-entity-2="part3" data-source-line="12" id="msg4"><polygon fill="#181818" points="711.4561,195.8281,701.4561,199.8281,711.4561,203.8281,707.4561,199.8281" style="stroke:#181818;stroke-width:1;stroke-linejoin:miter;stroke-miterlimit:10;"/><line style="stroke:#181818;stroke-width:1;stroke-dasharray:2,2;" x1="705.4561" x2="941.5552" y1="199.8281" y2="199.8281"/><text fill="#000000" font-family="sans-serif" font-size="13" lengthAdjust="spacing" textLength="112.6519" x="717.4561" y="194.7622">4. Tr&#7843; v&#7873; Dataset</text></g><g class="message" data-entity-1="part3" data-entity-2="part2" data-source-line="14" id="msg5"><polygon fill="#181818" points="371.9985,224.9609,361.9985,228.9609,371.9985,232.9609,367.9985,228.9609" style="stroke:#181818;stroke-width:1;stroke-linejoin:miter;stroke-miterlimit:10;"/><line style="stroke:#181818;stroke-width:1;stroke-dasharray:2,2;" x1="365.9985" x2="694.4561" y1="228.9609" y2="228.9609"/><text fill="#000000" font-family="sans-serif" font-size="13" lengthAdjust="spacing" textLength="142.0034" x="377.9985" y="223.895">5. Tr&#7843; v&#7873; d&#7919; li&#7879;u JSON</text></g><g class="message" data-entity-1="part1" data-entity-2="part2" data-source-line="17" id="msg6"><polygon fill="#181818" points="338.9985,254.0938,348.9985,258.0938,338.9985,262.0938,342.9985,258.0938" style="stroke:#181818;stroke-width:1;stroke-linejoin:miter;stroke-miterlimit:10;"/><line style="stroke:#181818;stroke-width:1;" x1="23.9551" x2="344.9985" y1="258.0938" y2="258.0938"/><text fill="#000000" font-family="sans-serif" font-size="13" lengthAdjust="spacing" textLength="240.8555" x="30.9551" y="253.0278">6. Nh&#7853;p Ti&#234;u &#273;&#7873; v&#224; N&#7897;i dung b&#225;o c&#225;o</text></g><g class="message" data-entity-1="part2" data-entity-2="part3" data-source-line="18" id="msg7"><polygon fill="#181818" points="678.4561,283.2266,688.4561,287.2266,678.4561,291.2266,682.4561,287.2266" style="stroke:#181818;stroke-width:1;stroke-linejoin:miter;stroke-miterlimit:10;"/><line style="stroke:#181818;stroke-width:1;" x1="360.9985" x2="684.4561" y1="287.2266" y2="287.2266"/><text fill="#000000" font-family="sans-serif" font-size="13" lengthAdjust="spacing" textLength="229.4805" x="367.9985" y="282.1606">7. G&#7917;i th&#244;ng tin (POST /api/reports)</text></g><g class="message" data-entity-1="part3" data-entity-2="part4" data-source-line="20" id="msg8"><polygon fill="#181818" points="925.5552,312.3594,935.5552,316.3594,925.5552,320.3594,929.5552,316.3594" style="stroke:#181818;stroke-width:1;stroke-linejoin:miter;stroke-miterlimit:10;"/><line style="stroke:#181818;stroke-width:1;" x1="700.4561" x2="931.5552" y1="316.3594" y2="316.3594"/><text fill="#000000" font-family="sans-serif" font-size="13" lengthAdjust="spacing" textLength="214.4365" x="707.4561" y="311.2935">8. Insert d&#7919; li&#7879;u v&#224;o b&#7843;ng Report</text></g><g class="message" data-entity-1="part4" data-entity-2="part3" data-source-line="22" id="msg9"><polygon fill="#181818" points="711.4561,341.4922,701.4561,345.4922,711.4561,349.4922,707.4561,345.4922" style="stroke:#181818;stroke-width:1;stroke-linejoin:miter;stroke-miterlimit:10;"/><line style="stroke:#181818;stroke-width:1;stroke-dasharray:2,2;" x1="705.4561" x2="941.5552" y1="345.4922" y2="345.4922"/><text fill="#000000" font-family="sans-serif" font-size="13" lengthAdjust="spacing" textLength="183.0981" x="717.4561" y="340.4263">9. X&#225;c nh&#7853;n Record Created</text></g><g class="message" data-entity-1="part3" data-entity-2="part2" data-source-line="24" id="msg10"><polygon fill="#181818" points="371.9985,370.625,361.9985,374.625,371.9985,378.625,367.9985,374.625" style="stroke:#181818;stroke-width:1;stroke-linejoin:miter;stroke-miterlimit:10;"/><line style="stroke:#181818;stroke-width:1;stroke-dasharray:2,2;" x1="365.9985" x2="694.4561" y1="374.625" y2="374.625"/><text fill="#000000" font-family="sans-serif" font-size="13" lengthAdjust="spacing" textLength="168.4985" x="377.9985" y="369.5591">10. Tr&#7843; HTTP 201 Created</text></g><g class="message" data-entity-1="part2" data-entity-2="part1" data-source-line="26" id="msg11"><polygon fill="#181818" points="34.9551,399.7578,24.9551,403.7578,34.9551,407.7578,30.9551,403.7578" style="stroke:#181818;stroke-width:1;stroke-linejoin:miter;stroke-miterlimit:10;"/><line style="stroke:#181818;stroke-width:1;stroke-dasharray:2,2;" x1="28.9551" x2="354.9985" y1="403.7578" y2="403.7578"/><text fill="#000000" font-family="sans-serif" font-size="13" lengthAdjust="spacing" textLength="303.0435" x="40.9551" y="398.6919">11. Hi&#7875;n th&#7883; th&#244;ng b&#225;o Toast "L&#432;u th&#224;nh c&#244;ng"</text></g><?plantuml-src XP8_RzD06CPtVuf7djAXRbF-bGn8K51RLALfOoJMi-zKdnhEvkuSqH4nT63go9PGiKIAO62AHoE-Xxy9xyMnQYDKbhFbUv_d_RsFNnRRLCD_OuJsmGnoUl4ofgsCPSQKXNyeMGekg-9QeNSkM6otwahPhNi-EaRlrOTC2sFg2dDbh7ZdSMPPn8o0FqgDlT1YV7QolkUHvxb-s7v6RWFq0nnCP7m9_-JtZnmlodcAc0uVLfSBXPVC957ADFS8GawP5GuYbqvVznfWBy1XLImbj7YV2sCngLRVhi2huZicReWSML9-LR3bCaxGYnEQ0Gvnwyvr0ru_d3kF1dWGu2mNkkjbawguKHUuB1U8ofcaOvxU6T64FC9sY-zXW51NgrjCg-8ZJMGf6EjnqPOqVJUnFEf8sjrVZq-7RUs6knFgum33f5ejCuIoNEJuTUDSfkKCmwhu8i5pme-QgFzAyqcJfatAdrHd9Ut0w7GSOeTbSaUBBDNM_2-v_G37Yf1i1vuGKaGq5_cUhutko-rfWBVbF8PoioWInAdcED22oldz-VLtcm2Fmd24lTt-ltGRSZU_qn4kAMaZZuZsarh_wCzD3EkumfJHUjMhIjzdAg44wTPlk-Ro3m00?></g></svg>