<svg xmlns="http://www.w3.org/2000/svg" xmlns:xlink="http://www.w3.org/1999/xlink" contentStyleType="text/css" data-diagram-type="DESCRIPTION" height="413px" preserveAspectRatio="none" style="width:1479px;height:413px;background:#FFFFFF;" version="1.1" viewBox="0 0 1479 413" width="1479px" zoomAndPan="magnify"><?plantuml 1.2026.6?><defs/><g><!--entity guest--><g class="entity" data-qualified-name="guest" data-source-line="6" id="ent0001"><rect fill="#F1F1F1" height="36.2969" rx="2.5" ry="2.5" style="stroke:#181818;stroke-width:0.5;" width="61.1182" x="655.23" y="10.5"/><text fill="#000000" font-family="sans-serif" font-size="14" lengthAdjust="spacing" textLength="41.1182" x="665.23" y="33.4951">Guest</text></g><!--entity user--><g class="entity" data-qualified-name="user" data-source-line="7" id="ent0002"><rect fill="#F1F1F1" height="36.2969" rx="2.5" ry="2.5" style="stroke:#181818;stroke-width:0.5;" width="51.9102" x="196.84" y="10.5"/><text fill="#000000" font-family="sans-serif" font-size="14" lengthAdjust="spacing" textLength="31.9102" x="206.84" y="33.4951">User</text></g><!--entity admin--><g class="entity" data-qualified-name="admin" data-source-line="8" id="ent0003"><rect fill="#F1F1F1" height="36.2969" rx="2.5" ry="2.5" style="stroke:#181818;stroke-width:0.5;" width="64.8643" x="1103.36" y="10.5"/><text fill="#000000" font-family="sans-serif" font-size="14" lengthAdjust="spacing" textLength="44.8643" x="1113.36" y="33.4951">Admin</text></g><!--entity external_api--><g class="entity" data-qualified-name="external_api" data-source-line="9" id="ent0004"><rect fill="#F1F1F1" height="36.2969" rx="2.5" ry="2.5" style="stroke:#181818;stroke-width:0.5;" width="228.8789" x="1118.35" y="339.94"/><text fill="#000000" font-family="sans-serif" font-size="14" lengthAdjust="spacing" textLength="208.8789" x="1128.35" y="362.9351">External API (arXiv/OpenAlex)</text></g><!--entity acc_mgmt--><g class="entity" data-qualified-name="acc_mgmt" data-source-line="11" id="ent0005"><ellipse cx="801.79" cy="189.3" fill="#F1F1F1" rx="8" ry="8" style="stroke:#181818;stroke-width:0.5;"/><text fill="#000000" font-family="sans-serif" font-size="14" lengthAdjust="spacing" textLength="22.2646" x="767.5556" y="219.2951">1.0</text><text fill="#000000" font-family="sans-serif" font-size="14" lengthAdjust="spacing" textLength="53.9697" x="767.5556" y="235.592">Qu&#7843;n l&#253;</text><text fill="#000000" font-family="sans-serif" font-size="14" lengthAdjust="spacing" textLength="68.4688" x="767.5556" y="251.8889">T&#224;i kho&#7843;n</text></g><!--entity search_mgmt--><g class="entity" data-qualified-name="search_mgmt" data-source-line="12" id="ent0006"><ellipse cx="569.79" cy="189.3" fill="#F1F1F1" rx="8" ry="8" style="stroke:#181818;stroke-width:0.5;"/><text fill="#000000" font-family="sans-serif" font-size="14" lengthAdjust="spacing" textLength="22.2646" x="501.4887" y="219.2951">2.0</text><text fill="#000000" font-family="sans-serif" font-size="14" lengthAdjust="spacing" textLength="80.1445" x="501.4887" y="235.592">T&#236;m ki&#7871;m &amp;</text><text fill="#000000" font-family="sans-serif" font-size="14" lengthAdjust="spacing" textLength="136.6025" x="501.4887" y="251.8889">Ph&#226;n t&#237;ch Xu h&#432;&#7899;ng</text></g><!--entity user_data_mgmt--><g class="entity" data-qualified-name="user_data_mgmt" data-source-line="13" id="ent0007"><ellipse cx="98.79" cy="189.3" fill="#F1F1F1" rx="8" ry="8" style="stroke:#181818;stroke-width:0.5;"/><text fill="#000000" font-family="sans-serif" font-size="14" lengthAdjust="spacing" textLength="22.2646" x="25.3994" y="219.2951">3.0</text><text fill="#000000" font-family="sans-serif" font-size="14" lengthAdjust="spacing" textLength="53.9697" x="25.3994" y="235.592">Qu&#7843;n l&#253;</text><text fill="#000000" font-family="sans-serif" font-size="14" lengthAdjust="spacing" textLength="146.7813" x="25.3994" y="251.8889">Bookmark &amp; B&#225;o c&#225;o</text></g><!--entity scraping_mgmt--><g class="entity" data-qualified-name="scraping_mgmt" data-source-line="14" id="ent0008"><ellipse cx="1232.79" cy="189.3" fill="#F1F1F1" rx="8" ry="8" style="stroke:#181818;stroke-width:0.5;"/><text fill="#000000" font-family="sans-serif" font-size="14" lengthAdjust="spacing" textLength="22.2646" x="1169.6909" y="219.2951">4.0</text><text fill="#000000" font-family="sans-serif" font-size="14" lengthAdjust="spacing" textLength="62.5762" x="1169.6909" y="235.592">Thu th&#7853;p</text><text fill="#000000" font-family="sans-serif" font-size="14" lengthAdjust="spacing" textLength="126.1982" x="1169.6909" y="251.8889">D&#7919; li&#7879;u (Scraping)</text></g><!--entity users--><g class="entity" data-qualified-name="users" data-source-line="16" id="ent0009"><path d="M760.12,345.44 C760.12,335.44 801.7909,335.44 801.7909,335.44 C801.7909,335.44 843.4618,335.44 843.4618,345.44 L843.4618,370.7369 C843.4618,380.7369 801.7909,380.7369 801.7909,380.7369 C801.7909,380.7369 760.12,380.7369 760.12,370.7369 L760.12,345.44" fill="#F1F1F1" style="stroke:#181818;stroke-width:0.5;"/><path d="M760.12,345.44 C760.12,355.44 801.7909,355.44 801.7909,355.44 C801.7909,355.44 843.4618,355.44 843.4618,345.44" fill="none" style="stroke:#181818;stroke-width:0.5;"/><text fill="#000000" font-family="sans-serif" font-size="14" lengthAdjust="spacing" textLength="63.3418" x="770.12" y="372.4351">D1 Users</text></g><!--entity papers--><g class="entity" data-qualified-name="papers" data-source-line="17" id="ent0010"><path d="M492.27,337.3 C492.27,327.3 569.7886,327.3 569.7886,327.3 C569.7886,327.3 647.3071,327.3 647.3071,337.3 L647.3071,378.8937 C647.3071,388.8937 569.7886,388.8937 569.7886,388.8937 C569.7886,388.8937 492.27,388.8937 492.27,378.8937 L492.27,337.3" fill="#F1F1F1" style="stroke:#181818;stroke-width:0.5;"/><path d="M492.27,337.3 C492.27,347.3 569.7886,347.3 569.7886,347.3 C569.7886,347.3 647.3071,347.3 647.3071,337.3" fill="none" style="stroke:#181818;stroke-width:0.5;"/><text fill="#000000" font-family="sans-serif" font-size="14" lengthAdjust="spacing" textLength="135.0371" x="502.27" y="364.2951">D2 Papers, Authors</text><text fill="#000000" font-family="sans-serif" font-size="14" lengthAdjust="spacing" textLength="132.8906" x="502.27" y="380.592">Journals, Keywords</text></g><!--entity user_data--><g class="entity" data-qualified-name="user_data" data-source-line="18" id="ent0011"><path d="M6,345.44 C6,335.44 98.7935,335.44 98.7935,335.44 C98.7935,335.44 191.5869,335.44 191.5869,345.44 L191.5869,370.7369 C191.5869,380.7369 98.7935,380.7369 98.7935,380.7369 C98.7935,380.7369 6,380.7369 6,370.7369 L6,345.44" fill="#F1F1F1" style="stroke:#181818;stroke-width:0.5;"/><path d="M6,345.44 C6,355.44 98.7935,355.44 98.7935,355.44 C98.7935,355.44 191.5869,355.44 191.5869,345.44" fill="none" style="stroke:#181818;stroke-width:0.5;"/><text fill="#000000" font-family="sans-serif" font-size="14" lengthAdjust="spacing" textLength="165.5869" x="16" y="372.4351">D3 Bookmarks, Reports</text></g><!--entity settings--><g class="entity" data-qualified-name="settings" data-source-line="19" id="ent0012"><path d="M1202.91,16 C1202.91,6 1279.7928,6 1279.7928,6 C1279.7928,6 1356.6756,6 1356.6756,16 L1356.6756,41.2969 C1356.6756,51.2969 1279.7928,51.2969 1279.7928,51.2969 C1279.7928,51.2969 1202.91,51.2969 1202.91,41.2969 L1202.91,16" fill="#F1F1F1" style="stroke:#181818;stroke-width:0.5;"/><path d="M1202.91,16 C1202.91,26 1279.7928,26 1279.7928,26 C1279.7928,26 1356.6756,26 1356.6756,16" fill="none" style="stroke:#181818;stroke-width:0.5;"/><text fill="#000000" font-family="sans-serif" font-size="14" lengthAdjust="spacing" textLength="133.7656" x="1212.91" y="42.9951">D4 SystemSettings</text></g><!--link guest to acc_mgmt--><g class="link" data-entity-1="ent0001" data-entity-2="ent0005" data-link-type="dependency" data-source-line="21" id="lnk13"><path d="M716.66,44.37 C732.33,53.18 750.58,65.71 762.79,81.3 C787.55,112.89 796.7633,156.7255 799.8433,175.5655" fill="none" id="guest-to-acc_mgmt" style="stroke:#181818;stroke-width:1;"/><polygon fill="#181818" points="800.65,180.5,803.1455,170.9725,799.8433,175.5655,795.2503,172.2633,800.65,180.5" style="stroke:#181818;stroke-width:1;stroke-linejoin:miter;stroke-miterlimit:10;"/><text fill="#000000" font-family="sans-serif" font-size="13" lengthAdjust="spacing" textLength="187.1479" x="774.05" y="94.3669">Request &#272;&#259;ng k&#253;/&#272;&#259;ng nh&#7853;p</text></g><!--link guest to search_mgmt--><g class="link" data-entity-1="ent0001" data-entity-2="ent0006" data-link-type="dependency" data-source-line="22" id="lnk14"><path d="M654.98,33.06 C625.69,38.13 583.18,50.63 562.79,81.3 C541.87,112.77 556.62,156.9892 564.42,175.8592" fill="none" id="guest-to-search_mgmt" style="stroke:#181818;stroke-width:1;"/><polygon fill="#181818" points="566.33,180.48,566.5886,170.6345,564.42,175.8592,559.1953,173.6906,566.33,180.48" style="stroke:#181818;stroke-width:1;stroke-linejoin:miter;stroke-miterlimit:10;"/><text fill="#000000" font-family="sans-serif" font-size="13" lengthAdjust="spacing" textLength="190.3091" x="563.79" y="94.3669">Query T&#236;m ki&#7871;m/Xem bi&#7875;u &#273;&#7891;</text></g><!--link user to user_data_mgmt--><g class="link" data-entity-1="ent0002" data-entity-2="ent0007" data-link-type="dependency" data-source-line="24" id="lnk15"><path d="M196.47,30.27 C162.14,32.66 103.24,42.56 75.79,81.3 C53.49,112.77 78.2804,157.4274 90.6404,176.2974" fill="none" id="user-to-user_data_mgmt" style="stroke:#181818;stroke-width:1;"/><polygon fill="#181818" points="93.38,180.48,91.7947,170.7596,90.6404,176.2974,85.1025,175.143,93.38,180.48" style="stroke:#181818;stroke-width:1;stroke-linejoin:miter;stroke-miterlimit:10;"/><text fill="#000000" font-family="sans-serif" font-size="13" lengthAdjust="spacing" textLength="246.8984" x="76.79" y="94.3669">Y&#234;u c&#7847;u Th&#234;m Bookmark/L&#432;u B&#225;o c&#225;o</text></g><!--link user to acc_mgmt--><g class="link" data-entity-1="ent0002" data-entity-2="ent0005" data-link-type="dependency" data-source-line="25" id="lnk16"><path d="M249.17,43.69 C280.55,59.72 334.97,85.36 384.79,98.3 C505.51,129.63 543.23,96.4 663.79,128.3 C715.06,141.86 767.4224,169.224 788.7124,180.974" fill="none" id="user-to-acc_mgmt" style="stroke:#181818;stroke-width:1;"/><polygon fill="#181818" points="793.09,183.39,787.1432,175.5392,788.7124,180.974,783.2776,182.5433,793.09,183.39" style="stroke:#181818;stroke-width:1;stroke-linejoin:miter;stroke-miterlimit:10;"/><text fill="#000000" font-family="sans-serif" font-size="13" lengthAdjust="spacing" textLength="161.1479" x="385.79" y="94.3669">C&#7853;p nh&#7853;t th&#244;ng tin h&#7891; s&#417;</text></g><!--link admin to acc_mgmt--><g class="link" data-entity-1="ent0003" data-entity-2="ent0005" data-link-type="dependency" data-source-line="27" id="lnk17"><path d="M1102.89,44.64 C1080.54,54.87 1050.33,68.79 1023.79,81.3 C940.59,120.53 845.0515,167.1331 815.1415,181.7631" fill="none" id="admin-to-acc_mgmt" style="stroke:#181818;stroke-width:1;"/><polygon fill="#181818" points="810.65,183.96,820.4922,183.5987,815.1415,181.7631,816.9771,176.4123,810.65,183.96" style="stroke:#181818;stroke-width:1;stroke-linejoin:miter;stroke-miterlimit:10;"/><text fill="#000000" font-family="sans-serif" font-size="13" lengthAdjust="spacing" textLength="168.0034" x="1024.79" y="94.3669">Qu&#7843;n l&#253; User (C&#7845;p quy&#7873;n)</text></g><!--link admin to scraping_mgmt--><g class="link" data-entity-1="ent0003" data-entity-2="ent0008" data-link-type="dependency" data-source-line="28" id="lnk18"><path d="M1165.95,47.24 C1178.65,56.02 1192.59,67.67 1201.79,81.3 C1223.67,113.66 1229.8322,156.5939 1231.6722,175.3639" fill="none" id="admin-to-scraping_mgmt" style="stroke:#181818;stroke-width:1;"/><polygon fill="#181818" points="1232.16,180.34,1235.2629,170.9927,1231.6722,175.3639,1227.301,171.7732,1232.16,180.34" style="stroke:#181818;stroke-width:1;stroke-linejoin:miter;stroke-miterlimit:10;"/><text fill="#000000" font-family="sans-serif" font-size="13" lengthAdjust="spacing" textLength="146.2817" x="1211.76" y="94.3669">K&#237;ch ho&#7841;t Job Scraping</text></g><!--reverse link scraping_mgmt to external_api--><g class="link" data-entity-1="ent0008" data-entity-2="ent0004" data-link-type="dependency" data-source-line="30" id="lnk19"><path d="M1232.79,202.9 C1232.79,228.01 1232.79,303.74 1232.79,339.62" fill="none" id="scraping_mgmt-backto-external_api" style="stroke:#181818;stroke-width:1;"/><polygon fill="#181818" points="1232.79,197.9,1228.79,206.9,1232.79,202.9,1236.79,206.9,1232.79,197.9" style="stroke:#181818;stroke-width:1;stroke-linejoin:miter;stroke-miterlimit:10;"/><text fill="#000000" font-family="sans-serif" font-size="13" lengthAdjust="spacing" textLength="229.4233" x="1233.79" y="293.3669">Nh&#7853;n Response (Metadata b&#224;i b&#225;o)</text></g><!--link scraping_mgmt to papers--><g class="link" data-entity-1="ent0008" data-entity-2="ent0010" data-link-type="dependency" data-source-line="31" id="lnk20"><path d="M1223.83,193.62 C1185.2,207.84 1028.95,264.31 896.79,297.3 C873,303.24 741.5236,326.7893 652.5736,342.5193" fill="none" id="scraping_mgmt-to-papers" style="stroke:#181818;stroke-width:1;"/><polygon fill="#181818" points="647.65,343.39,657.209,345.7616,652.5736,342.5193,655.8159,337.8839,647.65,343.39" style="stroke:#181818;stroke-width:1;stroke-linejoin:miter;stroke-miterlimit:10;"/><text fill="#000000" font-family="sans-serif" font-size="13" lengthAdjust="spacing" textLength="238.5703" x="953.54" y="293.3669">C&#7853;p nh&#7853;t d&#7919; li&#7879;u m&#7899;i (Insert/Update)</text></g><!--link search_mgmt to papers--><g class="link" data-entity-1="ent0006" data-entity-2="ent0010" data-link-type="dependency" data-source-line="33" id="lnk21"><path d="M569.79,202.9 C569.79,225.39 569.79,282.54 569.79,322.08" fill="none" id="search_mgmt-papers" style="stroke:#181818;stroke-width:1;"/><polygon fill="#181818" points="569.79,197.9,565.79,206.9,569.79,202.9,573.79,206.9,569.79,197.9" style="stroke:#181818;stroke-width:1;stroke-linejoin:miter;stroke-miterlimit:10;"/><polygon fill="#181818" points="569.79,327.08,573.79,318.08,569.79,322.08,565.79,318.08,569.79,327.08" style="stroke:#181818;stroke-width:1;stroke-linejoin:miter;stroke-miterlimit:10;"/><text fill="#000000" font-family="sans-serif" font-size="13" lengthAdjust="spacing" textLength="187.478" x="570.79" y="293.3669">&#272;&#7885;c d&#7919; li&#7879;u b&#224;i b&#225;o/th&#7889;ng k&#234;</text></g><!--link user_data_mgmt to user_data--><g class="link" data-entity-1="ent0007" data-entity-2="ent0011" data-link-type="dependency" data-source-line="34" id="lnk22"><path d="M98.79,202.9 C98.79,226.99 98.79,292.28 98.79,330.04" fill="none" id="user_data_mgmt-user_data" style="stroke:#181818;stroke-width:1;"/><polygon fill="#181818" points="98.79,197.9,94.79,206.9,98.79,202.9,102.79,206.9,98.79,197.9" style="stroke:#181818;stroke-width:1;stroke-linejoin:miter;stroke-miterlimit:10;"/><polygon fill="#181818" points="98.79,335.04,102.79,326.04,98.79,330.04,94.79,326.04,98.79,335.04" style="stroke:#181818;stroke-width:1;stroke-linejoin:miter;stroke-miterlimit:10;"/><text fill="#000000" font-family="sans-serif" font-size="13" lengthAdjust="spacing" textLength="177.8867" x="99.79" y="293.3669">&#272;&#7885;c/Ghi Bookmark/B&#225;o c&#225;o</text></g><!--link user_data_mgmt to papers--><g class="link" data-entity-1="ent0007" data-entity-2="ent0010" data-link-type="dependency" data-source-line="35" id="lnk23"><path d="M107.78,193.48 C154.58,210.05 368.0667,285.6611 487.1067,327.8111" fill="none" id="user_data_mgmt-to-papers" style="stroke:#181818;stroke-width:1;"/><polygon fill="#181818" points="491.82,329.48,484.6712,322.7054,487.1067,327.8111,482.001,330.2466,491.82,329.48" style="stroke:#181818;stroke-width:1;stroke-linejoin:miter;stroke-miterlimit:10;"/><text fill="#000000" font-family="sans-serif" font-size="13" lengthAdjust="spacing" textLength="152.3691" x="391.33" y="293.3669">Li&#234;n k&#7871;t ID b&#224;i b&#225;o (FK)</text></g><!--link acc_mgmt to users--><g class="link" data-entity-1="ent0005" data-entity-2="ent0009" data-link-type="dependency" data-source-line="36" id="lnk24"><path d="M801.79,202.9 C801.79,226.99 801.79,292.28 801.79,330.04" fill="none" id="acc_mgmt-users" style="stroke:#181818;stroke-width:1;"/><polygon fill="#181818" points="801.79,197.9,797.79,206.9,801.79,202.9,805.79,206.9,801.79,197.9" style="stroke:#181818;stroke-width:1;stroke-linejoin:miter;stroke-miterlimit:10;"/><polygon fill="#181818" points="801.79,335.04,805.79,326.04,801.79,330.04,797.79,326.04,801.79,335.04" style="stroke:#181818;stroke-width:1;stroke-linejoin:miter;stroke-miterlimit:10;"/><text fill="#000000" font-family="sans-serif" font-size="13" lengthAdjust="spacing" textLength="85.2427" x="802.79" y="293.3669">&#272;&#7885;c/Ghi User</text></g><?plantuml-src PLDDQzj04BtlhvZu46oeg-RZ54B1YTtW94qSMm4734QMjvQmjLAqgpO-bXnwAYJqs4lJKWgceJdqP15waCd_q3_fxigMjCf5h6RdlNapRtPjYD_P14EhVRhVw7J0j7rpWj7QCjpewetsIUsutpZHc_e5-DXa1XdbCkerlTRlwAVj1WmDPWmCYX4gmae70QQi10Q5aJWzJpYds9Vt0J_0y_lQqB69J334wNb2uufXdnWJgBMQK3RyhlrUE_KmgKtmLKK2yJAZRtWsGgk6InilN_N8MH3FVn2OH8yzeaVVR1XRheWa5KspxumSbc4s1KQFVZimjkFvFmVMUwHbHTy9iEZUjA0RWFNq48TVoKWoK6pufYL903AQhMBfFTSTEuO_XdNOY-vSCFaddKfVpBSWP5iAiG9WLZo_ztga7eT_O6B7uQS0oXtJvxsIKT8_NVub52XdNAc-0S80cjQYwlKcj0oFHrz0BM2MwzCUENG3CKmUEiBJ3wu_JC2Up5FHMx3gYsUtiUVwZAfTgVdRq9bIXfqEPephfSiH9Zy8oGs2QlLrQWpiSDfB6LxSBAx92CRHexOy4ZcP72flnWwS1TYVGivBhOiT6F09NWUmk8t3BmZ9dHHGrGQEleXc0PZn_5S0kXNDdBHJxVZf8SXCp2XoclU5i4GVumP6VxbQtYDOl2ZGfpk4vAuNOTd2IDEWp7b-Ud0PJEFm8wdaG8hZ77aabrDizXs3GtS0gmL1I4tThLQLvyAn9q8cuNEcdaieXl9Rp0mn2XY8zpBWJLOAB492iW_5PeUvBNNuCx6XtEIaFjFEFSw9ArnGpgLTXMbn4uUVJOKZbQ3nTn3UoWMOeO9Rkug3AP5sODcPRQfZERGYuTYEPWJ6V5qODEjPUIY_EU86hBnAArArch3jFm00?></g></svg>