<svg xmlns="http://www.w3.org/2000/svg" xmlns:xlink="http://www.w3.org/1999/xlink" contentStyleType="text/css" data-diagram-type="ACTIVITY" height="568px" preserveAspectRatio="none" style="width:804px;height:568px;background:#FFFFFF;" version="1.1" viewBox="0 0 804 568" width="804px" zoomAndPan="magnify"><?plantuml 1.2026.6?><defs/><g><rect fill="none" height="20.9531" style="stroke:none;stroke-width:1;" width="757.5425" x="20" y="17.7451"/><ellipse cx="143.0127" cy="53.6982" fill="#222222" rx="10" ry="10" style="stroke:#222222;stroke-width:1;"/><rect fill="#FFFFE0" height="33.9688" rx="12.5" ry="12.5" style="stroke:#181818;stroke-width:0.5;" width="177.0547" x="54.4854" y="83.6982"/><text fill="#000000" font-family="sans-serif" font-size="12" lengthAdjust="spacing" textLength="157.0547" x="64.4854" y="104.8369">Nh&#7845;n n&#250;t "Ch&#7841;y Scraping"</text><rect fill="#FFFFE0" height="33.9688" rx="12.5" ry="12.5" style="stroke:#181818;stroke-width:0.5;" width="234.0254" x="26" y="471.5107"/><text fill="#000000" font-family="sans-serif" font-size="12" lengthAdjust="spacing" textLength="214.0254" x="36" y="492.6494">Nh&#7853;n th&#244;ng b&#225;o tr&#7841;ng th&#225;i thu th&#7853;p</text><ellipse cx="143.0127" cy="536.4795" fill="none" rx="11" ry="11" style="stroke:#222222;stroke-width:1;"/><ellipse cx="143.0127" cy="536.4795" fill="#222222" rx="6" ry="6" style="stroke:#222222;stroke-width:1;"/><line style="stroke:#000000;stroke-width:1.5;" x1="20" x2="20" y1="17.7451" y2="547.4795"/><rect fill="#98FB98" height="529.7344" style="stroke:#98FB98;stroke-width:1;" width="511.6563" x="264.0254" y="17.7451"/><rect fill="#FFFFE0" height="33.9688" rx="12.5" ry="12.5" style="stroke:#181818;stroke-width:0.5;" width="239.6914" x="433.9229" y="137.667"/><text fill="#000000" font-family="sans-serif" font-size="12" lengthAdjust="spacing" textLength="219.6914" x="443.9229" y="158.8057">G&#7885;i REST API t&#7899;i ngu&#7891;n (v&#237; d&#7909;: arXiv)</text><polygon fill="#FFFFE0" points="505.3213,191.6357,602.2158,191.6357,614.2158,203.6357,602.2158,215.6357,505.3213,215.6357,493.3213,203.6357,505.3213,191.6357" style="stroke:#181818;stroke-width:0.5;stroke-linejoin:miter;stroke-miterlimit:10;"/><text fill="#000000" font-family="sans-serif" font-size="11" lengthAdjust="spacing" textLength="96.8945" x="505.3213" y="207.4438">C&#243; d&#7919; li&#7879;u tr&#7843; v&#7873;?</text><text fill="#000000" font-family="sans-serif" font-size="11" lengthAdjust="spacing" textLength="14.4106" x="478.9106" y="201.0415">C&#243;</text><text fill="#000000" font-family="sans-serif" font-size="11" lengthAdjust="spacing" textLength="61.4829" x="614.2158" y="201.0415">Kh&#244;ng / L&#7895;i</text><rect fill="#FFFFE0" height="33.9688" rx="12.5" ry="12.5" style="stroke:#181818;stroke-width:0.5;" width="183.0605" x="331.8242" y="225.6357"/><text fill="#000000" font-family="sans-serif" font-size="12" lengthAdjust="spacing" textLength="163.0605" x="341.8242" y="246.7744">Ph&#226;n t&#237;ch d&#7919; li&#7879;u JSON/XML</text><rect fill="#FFFFE0" height="33.9688" rx="12.5" ry="12.5" style="stroke:#181818;stroke-width:0.5;" width="306.6582" x="270.0254" y="279.6045"/><text fill="#000000" font-family="sans-serif" font-size="12" lengthAdjust="spacing" textLength="286.6582" x="280.0254" y="300.7432">Tr&#237;ch xu&#7845;t metadata (Ti&#234;u &#273;&#7873;, T&#225;c gi&#7843;, T&#7915; kh&#243;a)</text><rect fill="#FFFFE0" height="33.9688" rx="12.5" ry="12.5" style="stroke:#181818;stroke-width:0.5;" width="251.8672" x="297.4209" y="333.5732"/><text fill="#000000" font-family="sans-serif" font-size="12" lengthAdjust="spacing" textLength="231.8672" x="307.4209" y="354.7119">Th&#7921;c thi Transaction l&#432;u v&#224;o Database</text><rect fill="#FFFFE0" height="33.9688" rx="12.5" ry="12.5" style="stroke:#181818;stroke-width:0.5;" width="231.2539" x="307.7275" y="387.542"/><text fill="#000000" font-family="sans-serif" font-size="12" lengthAdjust="spacing" textLength="211.2539" x="317.7275" y="408.6807">C&#7853;p nh&#7853;t tr&#7841;ng th&#225;i Job th&#224;nh c&#244;ng</text><rect fill="#FFFFE0" height="33.9688" rx="12.5" ry="12.5" style="stroke:#181818;stroke-width:0.5;" width="174.998" x="596.6836" y="225.6357"/><text fill="#000000" font-family="sans-serif" font-size="12" lengthAdjust="spacing" textLength="154.998" x="606.6836" y="246.7744">Ghi nh&#7853;n Log l&#7895;i h&#7879; th&#7889;ng</text><polygon fill="#FFFFE0" points="553.7686,427.5107,565.7686,439.5107,553.7686,451.5107,541.7686,439.5107,553.7686,427.5107" style="stroke:#181818;stroke-width:0.5;stroke-linejoin:miter;stroke-miterlimit:10;"/><line style="stroke:#000000;stroke-width:1.5;" x1="264.0254" x2="264.0254" y1="17.7451" y2="547.4795"/><line style="stroke:#000000;stroke-width:1.5;" x1="775.6816" x2="775.6816" y1="17.7451" y2="547.4795"/><line style="stroke:#181818;stroke-width:1;" x1="143.0127" x2="143.0127" y1="63.6982" y2="83.6982"/><polygon fill="#181818" points="139.0127,73.6982,143.0127,83.6982,147.0127,73.6982,143.0127,77.6982" style="stroke:#181818;stroke-width:1;stroke-linejoin:miter;stroke-miterlimit:10;"/><line style="stroke:#181818;stroke-width:1;" x1="143.0127" x2="143.0127" y1="505.4795" y2="525.4795"/><polygon fill="#181818" points="139.0127,515.4795,143.0127,525.4795,147.0127,515.4795,143.0127,519.4795" style="stroke:#181818;stroke-width:1;stroke-linejoin:miter;stroke-miterlimit:10;"/><line style="stroke:#181818;stroke-width:1;" x1="423.3545" x2="423.3545" y1="259.6045" y2="279.6045"/><polygon fill="#181818" points="419.3545,269.6045,423.3545,279.6045,427.3545,269.6045,423.3545,273.6045" style="stroke:#181818;stroke-width:1;stroke-linejoin:miter;stroke-miterlimit:10;"/><line style="stroke:#181818;stroke-width:1;" x1="423.3545" x2="423.3545" y1="313.5732" y2="333.5732"/><polygon fill="#181818" points="419.3545,323.5732,423.3545,333.5732,427.3545,323.5732,423.3545,327.5732" style="stroke:#181818;stroke-width:1;stroke-linejoin:miter;stroke-miterlimit:10;"/><line style="stroke:#181818;stroke-width:1;" x1="423.3545" x2="423.3545" y1="367.542" y2="387.542"/><polygon fill="#181818" points="419.3545,377.542,423.3545,387.542,427.3545,377.542,423.3545,381.542" style="stroke:#181818;stroke-width:1;stroke-linejoin:miter;stroke-miterlimit:10;"/><line style="stroke:#181818;stroke-width:1;" x1="493.3213" x2="423.3545" y1="203.6357" y2="203.6357"/><line style="stroke:#181818;stroke-width:1;" x1="423.3545" x2="423.3545" y1="203.6357" y2="225.6357"/><polygon fill="#181818" points="419.3545,215.6357,423.3545,225.6357,427.3545,215.6357,423.3545,219.6357" style="stroke:#181818;stroke-width:1;stroke-linejoin:miter;stroke-miterlimit:10;"/><line style="stroke:#181818;stroke-width:1;" x1="614.2158" x2="684.1826" y1="203.6357" y2="203.6357"/><line style="stroke:#181818;stroke-width:1;" x1="684.1826" x2="684.1826" y1="203.6357" y2="225.6357"/><polygon fill="#181818" points="680.1826,215.6357,684.1826,225.6357,688.1826,215.6357,684.1826,219.6357" style="stroke:#181818;stroke-width:1;stroke-linejoin:miter;stroke-miterlimit:10;"/><line style="stroke:#181818;stroke-width:1;" x1="423.3545" x2="423.3545" y1="421.5107" y2="439.5107"/><line style="stroke:#181818;stroke-width:1;" x1="423.3545" x2="541.7686" y1="439.5107" y2="439.5107"/><polygon fill="#181818" points="531.7686,435.5107,541.7686,439.5107,531.7686,443.5107,535.7686,439.5107" style="stroke:#181818;stroke-width:1;stroke-linejoin:miter;stroke-miterlimit:10;"/><line style="stroke:#181818;stroke-width:1;" x1="684.1826" x2="684.1826" y1="259.6045" y2="439.5107"/><line style="stroke:#181818;stroke-width:1;" x1="684.1826" x2="565.7686" y1="439.5107" y2="439.5107"/><polygon fill="#181818" points="575.7686,435.5107,565.7686,439.5107,575.7686,443.5107,571.7686,439.5107" style="stroke:#181818;stroke-width:1;stroke-linejoin:miter;stroke-miterlimit:10;"/><line style="stroke:#181818;stroke-width:1;" x1="553.7686" x2="553.7686" y1="171.6357" y2="191.6357"/><polygon fill="#181818" points="549.7686,181.6357,553.7686,191.6357,557.7686,181.6357,553.7686,185.6357" style="stroke:#181818;stroke-width:1;stroke-linejoin:miter;stroke-miterlimit:10;"/><line style="stroke:#181818;stroke-width:1;" x1="143.0127" x2="143.0127" y1="117.667" y2="122.667"/><line style="stroke:#181818;stroke-width:1;" x1="143.0127" x2="553.7686" y1="122.667" y2="122.667"/><line style="stroke:#181818;stroke-width:1;" x1="553.7686" x2="553.7686" y1="122.667" y2="137.667"/><polygon fill="#181818" points="549.7686,127.667,553.7686,137.667,557.7686,127.667,553.7686,131.667" style="stroke:#181818;stroke-width:1;stroke-linejoin:miter;stroke-miterlimit:10;"/><line style="stroke:#181818;stroke-width:1;" x1="553.7686" x2="553.7686" y1="451.5107" y2="456.5107"/><line style="stroke:#181818;stroke-width:1;" x1="553.7686" x2="143.0127" y1="456.5107" y2="456.5107"/><line style="stroke:#181818;stroke-width:1;" x1="143.0127" x2="143.0127" y1="456.5107" y2="471.5107"/><polygon fill="#181818" points="139.0127,461.5107,143.0127,471.5107,147.0127,461.5107,143.0127,465.5107" style="stroke:#181818;stroke-width:1;stroke-linejoin:miter;stroke-miterlimit:10;"/><text fill="#000000" font-family="sans-serif" font-size="18" lengthAdjust="spacing" textLength="57.6826" x="113.1714" y="34.4531">Admin</text><text fill="#000000" font-family="sans-serif" font-size="18" lengthAdjust="spacing" textLength="180.0176" x="429.8447" y="34.4531">H&#7879; th&#7889;ng (Backend)</text><?plantuml-src NL4nRzGm6DtzAvxAaaX8tIy3AWSgbADKN8Oo-X8tjYxt-UGuWOemC34nL0mCNHfG5z09K9aken7_m_y49oq8yFJPVjzxttjVjLIqveQlm3Eh6cLFyP8XdBiyMnP6rvHFTQaDPggGzfaeI_sSlMAitSjNYbfMMMuicnnAlxqaaDjQx4p3fJl5F3DyhQZOILXxQyrBKHWXg7tW-pUmqlTdL20QP0JbSSic-xv_g_3q_Zp5tj53MD-VAr1H-_uT8MhS1hdlBoVWvbWrSSBK2QAfknfUlw1KWRQ6DNxx4OtlNz-9WuYW4HAFZYP7qdqWMBV9v3zD1_CdXxl7ZsV9DImr8-957InPh8JbERSSKQhSfne_pWBvRQIkor2ee1Pgtt_6Kheh7l-c2FQ-PM40XTHmgePiDQ7y-RL6uouqxWN61Q_43NxgjvirAEIsiQE7BcHZfUiK3lHYg2v88dFVgKYOA2k1w94SRjZ5pFVlrOt3_I0uiX1cka0vV47-5NZefboT_5dVkBY0jjTi2zVf__Ijh8VcC5yIbgtNlm00?></g></svg>